<svg viewBox="0 0 841.9 595.3" fill="none" xmlns="http://www.w3.org/2000/svg">
<rect width="180" height="180" rx="15" fill="#14A800"/>
<path d="M117.785 97.885C117.773 97.8582 117.759 97.8315 117.744 97.8023C117.73 97.7755 117.716 97.7463 117.701 97.7195L85.145 32.829C83.6192 29.7891 80.0127 28.6136 77.0806 30.1907L43.3428 48.4054C33.5971 53.6698 26.3961 62.5897 23.0694 73.5273C19.7428 84.4625 20.709 96.0548 25.7815 106.165C30.854 116.277 39.4541 123.747 49.9985 127.196C60.5381 130.642 71.7187 129.644 81.4644 124.382L109.9 109.029L135.265 159.585C136.329 161.71 138.415 162.926 140.574 162.926C141.505 162.924 142.447 162.698 143.329 162.223C146.259 160.641 147.398 156.895 145.872 153.858L117.785 97.885ZM82.4832 109.847L77.4944 99.9026L84.3797 96.1862L89.3685 106.131L82.4832 109.847ZM74.1796 93.3021L70.5971 86.1637L77.4824 82.4473L81.065 89.5857L74.1796 93.3021ZM38.2631 103.622L50.9886 96.7509L54.5712 103.889L43.6656 109.777C41.6017 108.007 39.7937 105.934 38.2631 103.622ZM34.4748 77.2559C35.2449 74.7223 36.3355 72.3615 37.6556 70.176L40.7838 76.409L33.7287 80.2179C33.9272 79.2249 34.1759 78.2368 34.4748 77.2559ZM33.1882 88.8993L44.0937 83.0119L47.6763 90.1503L34.9484 97.021C34.0013 94.3925 33.401 91.6666 33.1882 88.8993ZM62.2864 52.1608L67.2752 62.103L60.3899 65.8194L55.4011 55.8773L62.2864 52.1608ZM70.5899 68.7084L74.1725 75.8468L67.2872 79.5632L63.7046 72.4248L70.5899 68.7084ZM89.182 67.7421L80.534 72.4102L76.9515 65.2718L85.5994 60.6037L89.182 67.7421ZM60.9256 82.9973L54.0426 86.7138L50.4601 79.5754L57.3406 75.8589L60.9256 82.9973ZM57.355 93.3143L64.2379 89.5978L67.8205 96.7363L60.9375 100.453L57.355 93.3143ZM83.844 79.0107L92.4919 74.3427L96.0745 81.4811L87.4265 86.1491L83.844 79.0107ZM77.2983 44.0586L82.2871 54.0008L73.6392 58.6689L68.6503 48.7267L77.2983 44.0586ZM48.8625 59.4087L49.0395 59.3138L54.0283 69.2584L47.1478 72.9724L42.6301 63.9697C44.4931 62.1979 46.5666 60.6476 48.8625 59.4087ZM50.826 114.301L57.8835 110.492L61.0117 116.728C58.5268 116.594 56.0372 116.165 53.5954 115.367C52.6484 115.056 51.7252 114.7 50.826 114.301ZM68.7675 116.058L64.2499 107.056L71.1328 103.339L76.1216 113.284L75.9446 113.381C73.6463 114.618 71.2332 115.491 68.7675 116.058ZM95.7301 102.697L90.7413 92.7521L99.3892 88.084L104.378 98.0262L95.7301 102.697Z" fill="white"/>
<path fill-rule="evenodd" clip-rule="evenodd" d="M114.652 19.9231C114.652 19.0544 113.947 18.3501 113.079 18.3501C112.21 18.3501 111.506 19.0544 111.506 19.9231V20.8028C109.665 21.0234 107.972 21.6301 106.623 22.5615C104.892 23.7574 103.641 25.5709 103.641 27.7885C103.641 29.7926 104.414 31.6537 106.123 32.968C107.47 34.0045 109.284 34.6133 111.506 34.8029V42.6099C110.273 42.4123 109.21 41.9901 108.411 41.4384C107.296 40.6679 106.787 39.7286 106.787 38.8001C106.787 37.9312 106.083 37.227 105.214 37.227C104.345 37.227 103.641 37.9312 103.641 38.8001C103.641 41.0176 104.892 42.8312 106.623 44.0271C107.972 44.9585 109.665 45.5652 111.506 45.7858V46.6654C111.506 47.5342 112.21 48.2385 113.079 48.2385C113.947 48.2385 114.652 47.5342 114.652 46.6654V45.79C116.48 45.5802 118.171 45.0019 119.524 44.0832C121.277 42.8921 122.516 41.0709 122.516 38.8001C122.516 36.7447 121.753 34.8708 120.025 33.5636C118.674 32.5417 116.86 31.9625 114.652 31.7826V23.9787C115.885 24.1762 116.948 24.5985 117.746 25.1501C118.861 25.9206 119.371 26.86 119.371 27.7885C119.371 28.6573 120.075 29.3616 120.943 29.3616C121.812 29.3616 122.516 28.6573 122.516 27.7885C122.516 25.5709 121.265 23.7574 119.534 22.5615C118.186 21.63 116.492 21.0234 114.652 20.8028V19.9231ZM111.506 23.9787C110.273 24.1762 109.21 24.5986 108.411 25.1502C107.296 25.9206 106.787 26.86 106.787 27.7885C106.787 28.9306 107.193 29.8223 108.041 30.4744C108.742 31.0138 109.849 31.467 111.506 31.6429V23.9787ZM114.652 34.9413V42.6168C115.896 42.4282 116.961 42.0208 117.756 41.4806C118.849 40.7382 119.371 39.8065 119.371 38.8001C119.371 37.5781 118.955 36.6991 118.127 36.0728C117.429 35.5452 116.322 35.1091 114.652 34.9413Z" fill="white"/>
<path fill-rule="evenodd" clip-rule="evenodd" d="M131.842 27.5779C131.842 27.0984 131.454 26.7097 130.974 26.7097C130.495 26.7097 130.106 27.0984 130.106 27.5779V28.0634C129.09 28.1852 128.156 28.52 127.412 29.0341C126.456 29.6941 125.766 30.695 125.766 31.9189C125.766 33.025 126.192 34.0522 127.135 34.7776C127.879 35.3496 128.88 35.6856 130.106 35.7902V40.099C129.426 39.99 128.839 39.7569 128.398 39.4525C127.783 39.0272 127.502 38.5088 127.502 37.9963C127.502 37.5168 127.113 37.1281 126.634 37.1281C126.154 37.1281 125.766 37.5168 125.766 37.9963C125.766 39.2202 126.456 40.2212 127.412 40.8812C128.156 41.3952 129.09 41.7301 130.106 41.8518V42.3373C130.106 42.8168 130.495 43.2055 130.974 43.2055C131.454 43.2055 131.842 42.8168 131.842 42.3373V41.8542C132.851 41.7384 133.785 41.4192 134.531 40.9122C135.499 40.2548 136.183 39.2497 136.183 37.9963C136.183 36.8619 135.762 35.8277 134.808 35.1063C134.062 34.5423 133.061 34.2226 131.842 34.1233V29.8162C132.523 29.9252 133.11 30.1583 133.55 30.4628C134.166 30.888 134.447 31.4064 134.447 31.9189C134.447 32.3984 134.836 32.7871 135.315 32.7871C135.794 32.7871 136.183 32.3984 136.183 31.9189C136.183 30.695 135.493 29.6941 134.537 29.0341C133.793 28.52 132.858 28.1851 131.842 28.0634V27.5779ZM130.106 29.8163C129.426 29.9252 128.839 30.1583 128.398 30.4628C127.783 30.888 127.502 31.4064 127.502 31.9189C127.502 32.5492 127.726 33.0414 128.194 33.4013C128.581 33.699 129.192 33.9491 130.106 34.0462V29.8163ZM131.842 35.8666V40.1028C132.529 39.9987 133.117 39.7739 133.556 39.4757C134.159 39.066 134.447 38.5518 134.447 37.9963C134.447 37.3219 134.217 36.8368 133.76 36.4911C133.375 36.1999 132.764 35.9593 131.842 35.8666Z" fill="white"/>
<path fill-rule="evenodd" clip-rule="evenodd" d="M134.266 46.1712C134.266 45.0365 133.347 44.1167 132.212 44.1167C131.077 44.1167 130.158 45.0365 130.158 46.1712V47.32C127.754 47.6081 125.542 48.4004 123.781 49.6169C121.52 51.1788 119.886 53.5472 119.886 56.4434C119.886 59.0608 120.896 61.4914 123.128 63.2079C124.887 64.5616 127.256 65.3567 130.158 65.6042V75.8003C128.547 75.5423 127.159 74.9908 126.117 74.2703C124.66 73.2641 123.995 72.0374 123.995 70.8246C123.995 69.6899 123.075 68.7702 121.941 68.7702C120.806 68.7702 119.886 69.6899 119.886 70.8246C119.886 73.7208 121.52 76.0894 123.781 77.6512C125.542 78.8676 127.754 79.66 130.158 79.948V81.0969C130.158 82.2316 131.077 83.1513 132.212 83.1513C133.347 83.1513 134.266 82.2316 134.266 81.0969V79.9536C136.654 79.6795 138.863 78.9243 140.629 77.7245C142.919 76.1689 144.538 73.7904 144.538 70.8246C144.538 68.1403 143.54 65.693 141.283 63.9857C139.519 62.6512 137.15 61.8947 134.266 61.6597V51.4678C135.877 51.7257 137.265 52.2773 138.308 52.9977C139.764 54.0039 140.429 55.2307 140.429 56.4434C140.429 57.5781 141.349 58.4979 142.484 58.4979C143.618 58.4979 144.538 57.5781 144.538 56.4434C144.538 53.5472 142.904 51.1788 140.643 49.6169C138.882 48.4004 136.67 47.6081 134.266 47.32V46.1712ZM130.158 51.4678C128.547 51.7257 127.159 52.2773 126.117 52.9977C124.66 54.0039 123.995 55.2307 123.995 56.4434C123.995 57.935 124.526 59.0996 125.633 59.9512C126.548 60.6557 127.994 61.2476 130.158 61.4773V51.4678ZM134.266 65.785V75.8093C135.892 75.563 137.282 75.0309 138.321 74.3254C139.748 73.3559 140.429 72.1391 140.429 70.8246C140.429 69.2287 139.886 68.0807 138.805 67.2628C137.894 66.5737 136.447 66.0042 134.266 65.785Z" fill="white"/>
<path fill-rule="evenodd" clip-rule="evenodd" d="M143.627 40.9233C143.627 40.7144 143.457 40.545 143.249 40.545C143.04 40.545 142.87 40.7144 142.87 40.9233V41.1348C142.428 41.1878 142.021 41.3337 141.696 41.5576C141.28 41.8452 140.979 42.2812 140.979 42.8144C140.979 43.2963 141.165 43.7437 141.576 44.0598C141.9 44.309 142.336 44.4553 142.87 44.5009V46.378C142.574 46.3305 142.318 46.229 142.126 46.0963C141.858 45.9111 141.736 45.6853 141.736 45.462C141.736 45.2531 141.566 45.0838 141.358 45.0838C141.149 45.0838 140.979 45.2531 140.979 45.462C140.979 45.9952 141.28 46.4312 141.696 46.7188C142.021 46.9427 142.428 47.0886 142.87 47.1416V47.3531C142.87 47.562 143.04 47.7313 143.249 47.7313C143.457 47.7313 143.627 47.562 143.627 47.3531V47.1426C144.066 47.0922 144.473 46.9531 144.798 46.7323C145.22 46.4459 145.518 46.008 145.518 45.462C145.518 44.9678 145.334 44.5173 144.919 44.2029C144.594 43.9573 144.158 43.818 143.627 43.7747V41.8984C143.923 41.9459 144.179 42.0474 144.371 42.18C144.639 42.3653 144.761 42.5911 144.761 42.8144C144.761 43.0233 144.931 43.1926 145.14 43.1926C145.348 43.1926 145.518 43.0233 145.518 42.8144C145.518 42.2812 145.217 41.8452 144.801 41.5576C144.476 41.3337 144.069 41.1878 143.627 41.1348V40.9233ZM142.87 41.8984C142.574 41.9459 142.318 42.0474 142.126 42.18C141.858 42.3653 141.736 42.5911 141.736 42.8144C141.736 43.089 141.833 43.3034 142.037 43.4602C142.206 43.5899 142.472 43.6988 142.87 43.7411V41.8984ZM143.627 44.5342V46.3797C143.926 46.3343 144.182 46.2364 144.373 46.1065C144.636 45.928 144.761 45.704 144.761 45.462C144.761 45.1682 144.661 44.9568 144.462 44.8063C144.295 44.6794 144.028 44.5746 143.627 44.5342Z" fill="white"/>
<path fill-rule="evenodd" clip-rule="evenodd" d="M154.534 31.704C154.534 31.2245 154.146 30.8358 153.666 30.8358C153.187 30.8358 152.798 31.2245 152.798 31.704V32.1895C151.782 32.3113 150.848 32.6461 150.103 33.1602C149.148 33.8202 148.457 34.8211 148.457 36.045C148.457 37.1511 148.884 38.1783 149.827 38.9037C150.571 39.4757 151.572 39.8117 152.798 39.9163V44.2251C152.118 44.1161 151.531 43.883 151.09 43.5786C150.475 43.1533 150.194 42.6349 150.194 42.1224C150.194 41.6429 149.805 41.2542 149.325 41.2542C148.846 41.2542 148.457 41.6429 148.457 42.1224C148.457 43.3463 149.148 44.3473 150.103 45.0073C150.848 45.5213 151.782 45.8562 152.798 45.9779V46.4634C152.798 46.9429 153.187 47.3316 153.666 47.3316C154.146 47.3316 154.534 46.9429 154.534 46.4634V45.9803C155.543 45.8645 156.477 45.5453 157.223 45.0383C158.191 44.3809 158.875 43.3758 158.875 42.1224C158.875 40.988 158.453 39.9538 157.5 39.2324C156.754 38.6684 155.753 38.3487 154.534 38.2494V33.9423C155.215 34.0513 155.801 34.2844 156.242 34.5889C156.858 35.0141 157.139 35.5325 157.139 36.045C157.139 36.5245 157.527 36.9132 158.007 36.9132C158.486 36.9132 158.875 36.5245 158.875 36.045C158.875 34.8211 158.184 33.8202 157.229 33.1602C156.485 32.6461 155.55 32.3112 154.534 32.1895V31.704ZM152.798 33.9424C152.118 34.0513 151.531 34.2844 151.09 34.5889C150.475 35.0141 150.194 35.5325 150.194 36.045C150.194 36.6753 150.418 37.1675 150.886 37.5274C151.273 37.8251 151.884 38.0752 152.798 38.1723V33.9424ZM154.534 39.9927V44.2289C155.221 44.1248 155.809 43.9 156.248 43.6018C156.851 43.1921 157.139 42.6779 157.139 42.1224C157.139 41.448 156.909 40.9629 156.452 40.6172C156.067 40.326 155.456 40.0854 154.534 39.9927Z" fill="white"/>
<path fill-rule="evenodd" clip-rule="evenodd" d="M144.409 17.7183C144.409 17.3622 144.12 17.0735 143.764 17.0735C143.408 17.0735 143.12 17.3622 143.12 17.7183V18.0788C142.365 18.1692 141.671 18.4178 141.119 18.7995C140.409 19.2897 139.896 20.0329 139.896 20.9418C139.896 21.7631 140.213 22.5259 140.913 23.0645C141.466 23.4893 142.209 23.7388 143.12 23.8165V27.0161C142.614 26.9351 142.179 26.7621 141.851 26.536C141.394 26.2202 141.186 25.8353 141.186 25.4547C141.186 25.0986 140.897 24.81 140.541 24.81C140.185 24.81 139.896 25.0986 139.896 25.4547C139.896 26.3635 140.409 27.1068 141.119 27.5969C141.671 27.9786 142.365 28.2273 143.12 28.3177V28.6782C143.12 29.0343 143.408 29.3229 143.764 29.3229C144.12 29.3229 144.409 29.0343 144.409 28.6782V28.3194C145.158 28.2334 145.851 27.9964 146.406 27.6199C147.124 27.1318 147.632 26.3854 147.632 25.4547C147.632 24.6123 147.319 23.8444 146.611 23.3086C146.057 22.8898 145.314 22.6524 144.409 22.5787V19.3804C144.914 19.4613 145.35 19.6344 145.677 19.8605C146.134 20.1762 146.343 20.5612 146.343 20.9418C146.343 21.2978 146.632 21.5865 146.988 21.5865C147.344 21.5865 147.632 21.2978 147.632 20.9418C147.632 20.0329 147.119 19.2897 146.41 18.7996C145.857 18.4178 145.163 18.1692 144.409 18.0788V17.7183ZM143.12 19.3804C142.614 19.4613 142.179 19.6344 141.851 19.8605C141.394 20.1762 141.186 20.5612 141.186 20.9418C141.186 21.4098 141.352 21.7753 141.7 22.0425C141.987 22.2636 142.441 22.4493 143.12 22.5214V19.3804ZM144.409 23.8732V27.0189C144.919 26.9416 145.355 26.7747 145.681 26.5533C146.129 26.249 146.343 25.8672 146.343 25.4547C146.343 24.9539 146.172 24.5936 145.833 24.337C145.547 24.1207 145.093 23.942 144.409 23.8732Z" fill="white"/>
</svg>